<?xml version="1.0" encoding="UTF-8"?>
<svg id="_레이어_2" data-name="레이어 2" xmlns="http://www.w3.org/2000/svg" viewBox="0 0 141.88 27.22">
  <defs>
    <style>
      .cls-1 {
        fill: #fff;
      }
    </style>
  </defs>
  <g id="_레이어_1-2" data-name="레이어 1">
    <g>
      <g>
        <path class="cls-1" d="M33.2,8.04h3.34l2.72,4.42,2.72-4.42h3.34v11.41h-3.15v-6.55l-2.91,4.47h-.07l-2.89-4.43v6.52h-3.11V8.04Z"/>
        <path class="cls-1" d="M49.7,19.65c-.95,0-1.69-.29-2.22-.86-.53-.58-.79-1.37-.79-2.38v-5.77h3.11v4.77c0,.49,.11,.86,.34,1.11,.22,.25,.53,.37,.9,.37s.67-.12,.91-.37,.36-.62,.36-1.11v-4.77h3.11v8.82h-3.11v-1.21c-.28,.37-.63,.7-1.05,.98-.42,.28-.94,.42-1.56,.42Z"/>
        <path class="cls-1" d="M60.18,19.65c-.75,0-1.48-.11-2.18-.32-.71-.21-1.37-.54-1.99-.99l1.16-1.87c.51,.34,1.03,.59,1.56,.76,.53,.17,1.02,.25,1.48,.25,.52,0,.78-.16,.78-.47v-.03c0-.17-.12-.31-.36-.41-.24-.1-.59-.21-1.06-.34-.43-.11-.84-.24-1.22-.38-.38-.15-.71-.33-.99-.54-.28-.21-.5-.47-.67-.77-.16-.3-.24-.68-.24-1.12v-.03c0-.47,.09-.88,.27-1.25,.18-.36,.43-.67,.74-.91,.31-.24,.69-.43,1.12-.56,.43-.13,.9-.2,1.41-.2,.65,0,1.29,.09,1.92,.27,.63,.18,1.2,.43,1.71,.76l-1.06,1.96c-.46-.25-.92-.45-1.39-.59s-.87-.22-1.22-.22c-.24,0-.42,.04-.54,.12-.12,.08-.18,.18-.18,.3v.03c0,.17,.12,.31,.37,.42,.24,.1,.6,.23,1.07,.37,.43,.12,.84,.25,1.22,.4s.71,.33,.99,.54c.28,.21,.5,.47,.67,.77s.24,.67,.24,1.09v.03c0,.49-.09,.92-.26,1.28s-.42,.67-.73,.92-.7,.44-1.14,.56-.93,.19-1.47,.19Z"/>
        <path class="cls-1" d="M64.65,7.55h3.24v2.28h-3.24v-2.28Zm.07,3.08h3.11v8.82h-3.11V10.63Z"/>
        <path class="cls-1" d="M73.38,19.66c-.66,0-1.28-.12-1.84-.37-.57-.24-1.05-.57-1.46-.99-.41-.41-.73-.9-.96-1.46-.23-.56-.35-1.15-.35-1.77v-.03c0-.62,.12-1.21,.35-1.77s.56-1.05,.97-1.47c.41-.42,.91-.75,1.49-.99,.58-.24,1.22-.37,1.91-.37,.91,0,1.67,.18,2.28,.54,.61,.36,1.1,.84,1.48,1.43l-2.1,1.56c-.22-.29-.45-.52-.7-.68-.25-.16-.56-.24-.94-.24-.25,0-.48,.05-.69,.15-.21,.1-.39,.24-.55,.42-.15,.18-.27,.39-.36,.62-.09,.23-.13,.49-.13,.76v.03c0,.28,.04,.55,.13,.79,.09,.24,.21,.46,.36,.64,.15,.18,.34,.32,.55,.42,.22,.1,.46,.15,.72,.15,.37,0,.68-.08,.94-.24s.51-.39,.76-.67l2.07,1.5c-.41,.61-.93,1.1-1.55,1.47s-1.41,.55-2.38,.55Z"/>
        <path class="cls-1" d="M78.18,8.04h3.34l2.72,4.42,2.72-4.42h3.34v11.41h-3.15v-6.55l-2.91,4.47h-.07l-2.89-4.43v6.52h-3.11V8.04Z"/>
        <path class="cls-1" d="M96.23,19.66c-.71,0-1.35-.12-1.95-.36s-1.11-.57-1.54-.99c-.43-.42-.77-.9-1.01-1.46-.24-.55-.36-1.15-.36-1.78v-.03c0-.63,.12-1.22,.37-1.78,.24-.56,.58-1.05,1.02-1.47,.43-.42,.95-.75,1.55-.99,.6-.24,1.25-.37,1.96-.37s1.35,.12,1.95,.37c.59,.24,1.11,.57,1.54,.99s.77,.9,1.01,1.45c.24,.55,.36,1.15,.36,1.78v.03c0,.63-.12,1.23-.37,1.78-.24,.56-.58,1.05-1.02,1.47-.43,.42-.95,.75-1.55,.99-.6,.24-1.25,.37-1.96,.37Zm.03-2.64c.28,0,.54-.05,.77-.15s.42-.24,.58-.42c.16-.18,.28-.39,.37-.62,.09-.24,.13-.49,.13-.74v-.03c0-.27-.05-.52-.14-.76-.09-.24-.22-.44-.39-.62-.17-.18-.37-.32-.6-.43s-.48-.16-.75-.16-.54,.05-.77,.15-.42,.24-.58,.42c-.16,.18-.28,.39-.37,.62-.09,.24-.13,.48-.13,.74v.03c0,.27,.05,.52,.14,.76,.09,.24,.22,.44,.39,.62,.17,.18,.37,.32,.6,.43,.23,.11,.48,.16,.75,.16Z"/>
        <path class="cls-1" d="M102.02,10.63h3.11v1.24c.14-.18,.3-.36,.47-.54,.17-.17,.36-.33,.58-.46,.21-.13,.45-.24,.71-.32,.26-.08,.54-.12,.85-.12,.95,0,1.69,.29,2.22,.86,.53,.58,.8,1.37,.8,2.38v5.77h-3.11v-4.77c0-.49-.11-.86-.34-1.11-.23-.25-.52-.37-.88-.37s-.68,.13-.93,.37c-.24,.25-.36,.62-.36,1.11v4.77h-3.11V10.63Z"/>
        <path class="cls-1" d="M115.45,19.65c-.75,0-1.48-.11-2.18-.32-.71-.21-1.37-.54-1.99-.99l1.16-1.87c.51,.34,1.03,.59,1.56,.76,.53,.17,1.02,.25,1.48,.25,.52,0,.78-.16,.78-.47v-.03c0-.17-.12-.31-.36-.41-.24-.1-.59-.21-1.06-.34-.43-.11-.84-.24-1.22-.38-.38-.15-.71-.33-.99-.54-.28-.21-.5-.47-.67-.77-.16-.3-.24-.68-.24-1.12v-.03c0-.47,.09-.88,.27-1.25,.18-.36,.43-.67,.74-.91,.31-.24,.69-.43,1.12-.56,.43-.13,.9-.2,1.41-.2,.65,0,1.29,.09,1.92,.27,.63,.18,1.2,.43,1.71,.76l-1.06,1.96c-.46-.25-.92-.45-1.39-.59s-.87-.22-1.22-.22c-.24,0-.42,.04-.54,.12-.12,.08-.18,.18-.18,.3v.03c0,.17,.12,.31,.37,.42,.24,.1,.6,.23,1.07,.37,.43,.12,.84,.25,1.22,.4s.71,.33,.99,.54c.28,.21,.5,.47,.67,.77s.24,.67,.24,1.09v.03c0,.49-.09,.92-.26,1.28s-.42,.67-.73,.92-.7,.44-1.14,.56-.93,.19-1.47,.19Z"/>
        <path class="cls-1" d="M123.43,19.63c-.94,0-1.67-.22-2.2-.67s-.79-1.2-.79-2.25v-3.59h-1.04v-2.49h1.04v-2.23h3.11v2.23h2.05v2.49h-2.05v2.98c0,.32,.07,.54,.21,.68,.14,.14,.35,.2,.64,.2,.21,0,.41-.03,.6-.08,.2-.05,.39-.12,.57-.21v2.43c-.28,.15-.6,.27-.96,.37-.36,.09-.76,.14-1.19,.14Z"/>
        <path class="cls-1" d="M130.89,19.66c-.7,0-1.33-.11-1.91-.33s-1.07-.53-1.49-.93-.74-.88-.98-1.44c-.23-.56-.35-1.19-.35-1.87v-.03c0-.64,.11-1.24,.33-1.8,.22-.56,.52-1.05,.92-1.47,.4-.42,.87-.75,1.41-.99,.54-.24,1.14-.36,1.79-.36,.76,0,1.42,.13,1.98,.39,.56,.26,1.02,.61,1.38,1.05,.36,.44,.64,.95,.82,1.53,.18,.58,.27,1.2,.27,1.85v.31c0,.11,0,.22-.02,.33h-5.9c.12,.49,.34,.85,.68,1.09,.33,.24,.74,.36,1.23,.36,.37,0,.71-.07,1.02-.21,.31-.14,.62-.37,.94-.68l1.71,1.42c-.42,.54-.95,.98-1.57,1.3-.62,.33-1.38,.49-2.26,.49Zm1.27-5.35c-.05-.49-.22-.88-.49-1.17-.27-.29-.62-.43-1.04-.43s-.75,.14-1.01,.43c-.26,.29-.43,.68-.52,1.17h3.06Z"/>
        <path class="cls-1" d="M135.98,10.63h3.11v1.78c.25-.6,.59-1.08,1.03-1.43,.43-.36,1.02-.52,1.76-.49v3.26h-.26c-.81,0-1.44,.24-1.87,.72-.43,.48-.65,1.23-.65,2.25v2.74h-3.11V10.63Z"/>
      </g>
      <g>
        <path class="cls-1" d="M14.94,13.32c-.13,.14-.29,.15-.42-.35-.14-.57-.27-1.17-.4-1.78-.15-.72-.31-1.46-.5-2.21-.1-.37-.21-.76-.35-1.15-.08-.2-.16-.4-.27-.62-.11-.22-.24-.44-.47-.7-.11-.13-.27-.27-.47-.39-.2-.12-.49-.23-.77-.24h-.11c-.17,0-.05,0-.1,0h-.01s-.03,0-.03,0h-.03s-.07,.01-.07,.01c-.09,.01-.18,.03-.26,.06-.06,.02-.12,.04-.18,.07-.23,.1-.4,.23-.54,.36-.26,.26-.4,.49-.52,.71-.11,.22-.19,.42-.27,.61-.14,.39-.24,.75-.32,1.11-.05,.21-.52,2.47-.9,4.33-.5-.25-1.1-.4-1.75-.4-1.7,0-3.08,1.01-3.08,2.26s1.38,2.26,3.08,2.26c1.39,0,2.57-.67,2.95-1.6,0-.02,.02-.04,.02-.06,.02-.06,.04-.13,.06-.19,.26-.91,.69-2.59,.87-3.19,.16-.54,.3-1.09,.45-1.64,.36-1.04,.81-.6,.94-.13,1.35,5.83,3.46,2.89,3.46,2.89h0Z"/>
        <g>
          <path class="cls-1" d="M20.44,14.79c.5,.29,.9,.33,1.06,.33,.11,.01,.23,.02,.35,.02,.85-.02,1.58-.46,1.86-.66h0c-2.22,1.3-3.36-2.81-3.36-2.81h0c-.06-.19-.13-.39-.21-.6-.04-.1-.07-.19-.12-.28-.04-.1-.09-.19-.15-.29-.11-.2-.26-.42-.48-.64-.22-.22-.58-.45-1.01-.51-.05,0-.11-.02-.16-.02h-.08c.08-.01-.15,0-.13,0h-.15s-.02,.01-.03,.01h-.05s-.1,.03-.1,.03c-.06,.01-.13,.03-.19,.05-.03,.01-.06,.02-.09,.03l-.07,.03-.13,.06c-.33,.17-.58,.41-.74,.61-.05,.05-.08,.11-.12,.16-.03,.05-.08,.11-.11,.16-.06,.1-.13,.2-.18,.3-.22,.39-.37,.76-.5,1.12-.14,.36-.26,.7-.38,1.04,0,0,0,0,0,.01-.02,.06-.11,.27-.22,.39h0s-2.1,2.94-3.46-2.89c.08,.41,.16,.82,.24,1.24,.15,.73,.29,1.47,.49,2.25,.11,.39,.22,.78,.4,1.21,.09,.21,.19,.44,.34,.68,.08,.13,.17,.25,.3,.39,.06,.07,.14,.14,.22,.21,.09,.07,.18,.14,.31,.21l.09,.05,.1,.04c.07,.03,.12,.05,.24,.08,.05,.01,.1,.02,.15,.03,.05,0,.12,.02,.11,.01h.03s.02,0,.02,0h.11c.11,0,.23,0,.34-.03,.11-.02,.22-.05,.33-.09,.43-.16,.73-.42,.94-.66,.21-.24,.34-.46,.46-.68,.11-.21,.21-.42,.28-.61,.31-.78,.5-1.49,.7-2.13,.36-1.09,.85-.13,.85-.13h0s0,.01,0,.02c.23,.47,.47,.86,.71,1.17,.29,.46,.69,.83,1.17,1.08Z"/>
          <path class="cls-1" d="M24.37,17.41c-1.57,4.43-5.79,7.61-10.76,7.61-6.31,0-11.41-5.11-11.41-11.41S7.3,2.2,13.61,2.2c5.07,0,9.37,3.31,10.85,7.89h0s.03,.09,.07,.23c.03,.09,.05,.17,.07,.26,.22,.86,.49,2.67-.77,3.79,0,0-.04,.04-.13,.1-.28,.2-1.01,.65-1.86,.66-.12,0-.23,0-.35-.02-.16,0-.56-.03-1.06-.33-.48-.25-.88-.63-1.17-1.08-.24-.32-.48-.7-.71-1.17,.02,.06,.04,.11,.07,.17,.04,.1,.08,.21,.11,.32,.55,1.37,2.36,5.1,5.55,3.96,.08-.03,.17-.06,.25-.1h0s0,0,.01,0c.02-.01,.05-.03,.07-.04,.06-.03,.12-.06,.18-.09,.02-.01,.03-.02,.05-.02,0,0,0,0,0,0,.48-.26,.97-.63,1.41-1.16,.65-.81,.94-1.63,.88-3.12h0C26.56,5.47,20.73,0,13.61,0,6.09,0,0,6.09,0,13.61s6.09,13.61,13.61,13.61c7.09,0,12.91-5.43,13.54-12.35-.35,.75-1.13,1.89-2.79,2.54Z"/>
        </g>
      </g>
    </g>
  </g>
</svg>