<svg width="20" height="21" viewBox="0 0 20 21" fill="none" xmlns="http://www.w3.org/2000/svg">
<g id="spotify">
<circle id="bg" cx="10" cy="10.5" r="8.75" fill="#1ED760"/>
<path id="spotify_2" d="M13.9777 14.0143C13.8282 14.2515 13.5093 14.318 13.2602 14.1756C11.2968 13.0371 8.83523 12.7809 5.92515 13.4071C5.6461 13.464 5.36705 13.3027 5.30725 13.0371C5.24745 12.7714 5.41688 12.5058 5.69593 12.4488C8.8751 11.7562 11.6058 12.0503 13.7983 13.3312C14.0475 13.4735 14.1272 13.7771 13.9777 14.0143ZM14.9943 11.8511C14.8049 12.1452 14.4063 12.2306 14.0973 12.0598C11.8549 10.741 8.43659 10.3615 5.78562 11.13C5.43681 11.2249 5.07803 11.0446 4.97837 10.722C4.87871 10.3899 5.06807 10.0484 5.41688 9.95347C8.44656 9.08057 12.2137 9.49805 14.7949 11.0066C15.0839 11.1774 15.1836 11.5569 14.9943 11.8511ZM15.0839 9.59293C12.3931 8.07484 7.95822 7.93252 5.38698 8.67259C4.97837 8.79593 4.53986 8.57771 4.41031 8.17921C4.28075 7.7902 4.51993 7.37273 4.92854 7.24938C7.87849 6.39546 12.7818 6.56625 15.8713 8.31204C16.24 8.52078 16.3596 8.9762 16.1403 9.32726C15.9311 9.68781 15.4527 9.81115 15.0839 9.59293Z" fill="white"/>
</g>
</svg>
